<svg width="48" height="48" viewBox="0 0 48 48" fill="none" xmlns="http://www.w3.org/2000/svg">
<rect width="48" height="48" rx="8" fill="#FFB300"/>
<path d="M7.584 33V20.136H10.824L10.944 23.232L10.608 23.088C10.784 22.4 11.048 21.816 11.4 21.336C11.768 20.856 12.208 20.488 12.72 20.232C13.232 19.976 13.792 19.848 14.4 19.848C15.472 19.848 16.336 20.16 16.992 20.784C17.664 21.408 18.096 22.248 18.288 23.304L17.832 23.328C17.976 22.576 18.224 21.944 18.576 21.432C18.944 20.904 19.392 20.512 19.92 20.256C20.448 19.984 21.04 19.848 21.696 19.848C22.592 19.848 23.36 20.032 24 20.4C24.64 20.768 25.136 21.32 25.488 22.056C25.84 22.776 26.016 23.664 26.016 24.72V33H22.416V25.728C22.416 24.72 22.264 23.968 21.96 23.472C21.656 22.96 21.16 22.704 20.472 22.704C20.04 22.704 19.672 22.824 19.368 23.064C19.064 23.304 18.824 23.656 18.648 24.12C18.488 24.568 18.408 25.12 18.408 25.776V33H15.168V25.776C15.168 24.784 15.024 24.024 14.736 23.496C14.448 22.968 13.952 22.704 13.248 22.704C12.816 22.704 12.44 22.824 12.12 23.064C11.816 23.304 11.584 23.656 11.424 24.12C11.264 24.584 11.184 25.136 11.184 25.776V33H7.584ZM35.6974 21.384C35.3454 21.384 34.9534 21.616 34.5214 22.08C34.1054 22.544 33.6814 23.184 33.2494 24C32.8174 24.8 32.4094 25.704 32.0254 26.712C31.6414 27.72 31.3214 28.776 31.0654 29.88L31.4974 27.384C32.0734 25.688 32.6414 24.32 33.2014 23.28C33.7614 22.24 34.3374 21.48 34.9294 21C35.5214 20.52 36.1454 20.28 36.8014 20.28C37.6974 20.28 38.3854 20.584 38.8654 21.192C39.3614 21.8 39.6094 22.696 39.6094 23.88C39.6094 24.616 39.5054 25.408 39.2974 26.256C39.0894 27.104 38.7774 27.944 38.3614 28.776C37.9614 29.608 37.4654 30.376 36.8734 31.08C36.2814 31.768 35.6014 32.32 34.8334 32.736C34.0814 33.136 33.2334 33.336 32.2894 33.336C31.8254 33.336 31.4094 33.224 31.0414 33C30.6734 32.776 30.4094 32.464 30.2494 32.064L30.4414 31.656C30.6174 32.024 30.8174 32.288 31.0414 32.448C31.2814 32.608 31.5534 32.688 31.8574 32.688C32.3534 32.688 32.8334 32.488 33.2974 32.088C33.7614 31.672 34.1934 31.12 34.5934 30.432C34.9934 29.744 35.3454 28.984 35.6494 28.152C35.9534 27.304 36.1854 26.456 36.3454 25.608C36.5054 24.744 36.5854 23.936 36.5854 23.184C36.5854 22.544 36.5054 22.088 36.3454 21.816C36.2014 21.528 35.9854 21.384 35.6974 21.384ZM30.5134 32.04C30.0334 32.152 29.5294 32.336 29.0014 32.592C28.4894 32.832 27.9934 33.096 27.5134 33.384L27.1534 33.216C27.2654 32.992 27.3614 32.768 27.4414 32.544C27.5054 32.304 27.5694 32.064 27.6334 31.824L31.9054 16.992C32.0494 16.448 32.0254 16.048 31.8334 15.792C31.6574 15.536 31.1774 15.408 30.3934 15.408L30.5374 14.904C31.5934 14.888 32.5214 14.8 33.3214 14.64C34.1374 14.464 34.9134 14.224 35.6494 13.92L30.5134 32.04Z" fill="#F5F5F5"/>
</svg>
