<svg width="113" height="25" viewBox="0 0 113 25" fill="none" xmlns="http://www.w3.org/2000/svg">
<path d="M0.68 20V7.184H3.464L3.56 10.328L3.272 10.184C3.416 9.496 3.664 8.912 4.016 8.432C4.384 7.936 4.824 7.56 5.336 7.304C5.864 7.032 6.44 6.896 7.064 6.896C8.152 6.896 9.032 7.208 9.704 7.832C10.376 8.44 10.8 9.28 10.976 10.352H10.568C10.712 9.6 10.96 8.976 11.312 8.48C11.664 7.968 12.104 7.576 12.632 7.304C13.176 7.032 13.784 6.896 14.456 6.896C15.336 6.896 16.096 7.088 16.736 7.472C17.376 7.84 17.864 8.384 18.2 9.104C18.552 9.824 18.728 10.712 18.728 11.768V20H15.656V12.56C15.656 11.504 15.472 10.712 15.104 10.184C14.752 9.656 14.208 9.392 13.472 9.392C12.976 9.392 12.552 9.52 12.2 9.776C11.848 10.032 11.576 10.408 11.384 10.904C11.208 11.384 11.12 11.968 11.12 12.656V20H8.264V12.656C8.264 11.6 8.104 10.792 7.784 10.232C7.464 9.672 6.912 9.392 6.128 9.392C5.632 9.392 5.208 9.52 4.856 9.776C4.52 10.032 4.248 10.408 4.04 10.904C3.848 11.384 3.752 11.968 3.752 12.656V20H0.68ZM21.68 20V7.184H24.56L24.68 10.736L24.416 10.688C24.608 9.456 24.968 8.568 25.496 8.024C26.04 7.464 26.776 7.184 27.704 7.184H28.88V9.824H27.68C27.024 9.824 26.48 9.92 26.048 10.112C25.616 10.304 25.288 10.608 25.064 11.024C24.856 11.424 24.752 11.952 24.752 12.608V20H21.68ZM36.0834 20.288C34.8034 20.288 33.6914 20.016 32.7474 19.472C31.8034 18.912 31.0754 18.128 30.5634 17.12C30.0514 16.112 29.7954 14.936 29.7954 13.592C29.7954 12.248 30.0514 11.08 30.5634 10.088C31.0754 9.08 31.7954 8.296 32.7234 7.736C33.6674 7.176 34.7634 6.896 36.0114 6.896C37.2274 6.896 38.2914 7.168 39.2034 7.712C40.1314 8.256 40.8434 9.04 41.3394 10.064C41.8354 11.088 42.0834 12.32 42.0834 13.76V14.456H32.9874C33.0514 15.576 33.3554 16.424 33.8994 17C34.4594 17.56 35.1954 17.84 36.1074 17.84C36.7954 17.84 37.3634 17.688 37.8114 17.384C38.2754 17.064 38.5954 16.624 38.7714 16.064L41.9154 16.256C41.5634 17.504 40.8674 18.488 39.8274 19.208C38.8034 19.928 37.5554 20.288 36.0834 20.288ZM32.9874 12.392H38.9154C38.8514 11.352 38.5554 10.584 38.0274 10.088C37.4994 9.576 36.8274 9.32 36.0114 9.32C35.1954 9.32 34.5154 9.584 33.9714 10.112C33.4434 10.64 33.1154 11.4 32.9874 12.392ZM48.3922 20.288C47.0482 20.288 45.9682 19.984 45.1522 19.376C44.3362 18.752 43.9282 17.888 43.9282 16.784C43.9282 15.68 44.2722 14.816 44.9602 14.192C45.6482 13.568 46.6962 13.12 48.1042 12.848L52.3522 12.008C52.3522 11.096 52.1442 10.416 51.7282 9.968C51.3122 9.504 50.6962 9.272 49.8802 9.272C49.1442 9.272 48.5602 9.448 48.1282 9.8C47.7122 10.136 47.4242 10.624 47.2642 11.264L44.1442 11.12C44.4002 9.76 45.0242 8.72 46.0162 8C47.0082 7.264 48.2962 6.896 49.8802 6.896C51.7042 6.896 53.0802 7.36 54.0082 8.288C54.9522 9.2 55.4242 10.512 55.4242 12.224V16.88C55.4242 17.216 55.4802 17.448 55.5922 17.576C55.7202 17.704 55.9042 17.768 56.1442 17.768H56.5522V20C56.4562 20.032 56.2962 20.056 56.0722 20.072C55.8642 20.088 55.6482 20.096 55.4242 20.096C54.8962 20.096 54.4242 20.016 54.0082 19.856C53.5922 19.68 53.2722 19.384 53.0482 18.968C52.8242 18.536 52.7122 17.952 52.7122 17.216L52.9762 17.408C52.8482 17.968 52.5682 18.472 52.1362 18.92C51.7202 19.352 51.1922 19.688 50.5522 19.928C49.9122 20.168 49.1922 20.288 48.3922 20.288ZM49.0162 18.056C49.7042 18.056 50.2962 17.92 50.7922 17.648C51.2882 17.376 51.6722 17 51.9442 16.52C52.2162 16.04 52.3522 15.472 52.3522 14.816V14.096L49.0402 14.768C48.3522 14.912 47.8562 15.128 47.5522 15.416C47.2642 15.688 47.1202 16.048 47.1202 16.496C47.1202 16.992 47.2802 17.376 47.6002 17.648C47.9362 17.92 48.4082 18.056 49.0162 18.056ZM58.5472 20V7.184H61.4272L61.5472 10.736L61.2832 10.688C61.4752 9.456 61.8352 8.568 62.3632 8.024C62.9072 7.464 63.6432 7.184 64.5712 7.184H65.7472V9.824H64.5472C63.8912 9.824 63.3472 9.92 62.9152 10.112C62.4832 10.304 62.1552 10.608 61.9312 11.024C61.7232 11.424 61.6192 11.952 61.6192 12.608V20H58.5472ZM72.6146 20.288C71.3506 20.288 70.2866 20.104 69.4226 19.736C68.5746 19.368 67.9186 18.856 67.4546 18.2C66.9906 17.544 66.7266 16.8 66.6626 15.968L69.8066 15.824C69.9186 16.496 70.1986 17.016 70.6466 17.384C71.0946 17.752 71.7586 17.936 72.6386 17.936C73.3586 17.936 73.9186 17.824 74.3186 17.6C74.7346 17.36 74.9426 16.992 74.9426 16.496C74.9426 16.208 74.8706 15.968 74.7266 15.776C74.5826 15.584 74.3106 15.416 73.9106 15.272C73.5106 15.128 72.9186 14.984 72.1346 14.84C70.8226 14.616 69.7906 14.344 69.0386 14.024C68.2866 13.688 67.7506 13.272 67.4306 12.776C67.1266 12.28 66.9746 11.664 66.9746 10.928C66.9746 9.728 67.4306 8.76 68.3426 8.024C69.2706 7.272 70.6226 6.896 72.3986 6.896C73.5506 6.896 74.5186 7.088 75.3026 7.472C76.0866 7.84 76.6946 8.352 77.1266 9.008C77.5746 9.648 77.8546 10.384 77.9666 11.216L74.8706 11.36C74.7906 10.928 74.6466 10.552 74.4386 10.232C74.2306 9.912 73.9506 9.672 73.5986 9.512C73.2466 9.336 72.8306 9.248 72.3506 9.248C71.6306 9.248 71.0866 9.392 70.7186 9.68C70.3506 9.968 70.1666 10.352 70.1666 10.832C70.1666 11.168 70.2466 11.448 70.4066 11.672C70.5826 11.896 70.8626 12.08 71.2466 12.224C71.6306 12.352 72.1426 12.472 72.7826 12.584C74.1266 12.792 75.1826 13.064 75.9506 13.4C76.7346 13.72 77.2866 14.136 77.6066 14.648C77.9426 15.144 78.1106 15.744 78.1106 16.448C78.1106 17.264 77.8786 17.96 77.4146 18.536C76.9666 19.112 76.3266 19.552 75.4946 19.856C74.6786 20.144 73.7186 20.288 72.6146 20.288ZM87.0545 8.096C86.6385 8.096 86.1665 8.392 85.6385 8.984C85.1265 9.56 84.5985 10.352 84.0545 11.36C83.5265 12.352 83.0225 13.472 82.5425 14.72C82.0785 15.968 81.6865 17.264 81.3665 18.608L81.7745 16.016C82.4625 13.92 83.1265 12.24 83.7665 10.976C84.4225 9.696 85.0705 8.768 85.7105 8.192C86.3665 7.616 87.0465 7.328 87.7505 7.328C88.5025 7.328 89.1025 7.608 89.5505 8.168C90.0145 8.728 90.2465 9.576 90.2465 10.712C90.2465 11.432 90.1425 12.224 89.9345 13.088C89.7425 13.952 89.4465 14.808 89.0465 15.656C88.6625 16.504 88.1825 17.288 87.6065 18.008C87.0465 18.712 86.3985 19.28 85.6625 19.712C84.9265 20.128 84.1105 20.336 83.2145 20.336C82.7345 20.336 82.3025 20.192 81.9185 19.904C81.5505 19.616 81.3025 19.2 81.1745 18.656L81.3665 18.176C81.5905 18.768 81.8465 19.184 82.1345 19.424C82.4385 19.664 82.7905 19.784 83.1905 19.784C83.7345 19.784 84.2545 19.576 84.7505 19.16C85.2465 18.728 85.7025 18.16 86.1185 17.456C86.5345 16.752 86.8945 15.976 87.1985 15.128C87.5185 14.264 87.7585 13.408 87.9185 12.56C88.0945 11.696 88.1825 10.904 88.1825 10.184C88.1825 9.48 88.0785 8.96 87.8705 8.624C87.6785 8.272 87.4065 8.096 87.0545 8.096ZM81.4625 18.512C81.0785 18.816 80.6945 19.128 80.3105 19.448C79.9265 19.752 79.5425 20.064 79.1585 20.384L78.7985 20.216C78.9105 19.992 78.9985 19.768 79.0625 19.544C79.1425 19.304 79.2065 19.064 79.2545 18.824L83.4545 3.992C83.5825 3.448 83.5585 3.048 83.3825 2.792C83.2065 2.536 82.7265 2.408 81.9425 2.408L82.0625 1.904C82.9425 1.888 83.7185 1.8 84.3905 1.64C85.0625 1.464 85.6945 1.224 86.2865 0.92L81.4625 18.512ZM95.6923 3.296C95.7723 2.88 95.9803 2.52 96.3163 2.216C96.6683 1.912 97.0443 1.76 97.4443 1.76C97.8603 1.76 98.1803 1.912 98.4043 2.216C98.6443 2.52 98.7243 2.88 98.6443 3.296C98.5643 3.712 98.3483 4.072 97.9963 4.376C97.6603 4.68 97.2843 4.832 96.8683 4.832C96.4683 4.832 96.1483 4.68 95.9083 4.376C95.6843 4.072 95.6123 3.712 95.6923 3.296ZM94.9483 9.704C95.2843 8.712 95.1723 8.216 94.6123 8.216C94.2443 8.216 93.9163 8.416 93.6283 8.816C93.3403 9.216 93.0363 9.832 92.7163 10.664L92.3803 11.552H91.9243L92.5483 9.8C92.7883 9.128 93.0763 8.616 93.4123 8.264C93.7483 7.912 94.1003 7.672 94.4683 7.544C94.8523 7.4 95.2043 7.328 95.5243 7.328C96.0363 7.328 96.4123 7.432 96.6523 7.64C96.8923 7.848 97.0363 8.12 97.0843 8.456C97.1323 8.792 97.1163 9.16 97.0363 9.56C96.9563 9.944 96.8523 10.32 96.7243 10.688L94.1562 17.96C93.9963 18.424 93.9403 18.792 93.9883 19.064C94.0523 19.32 94.2363 19.448 94.5403 19.448C94.8603 19.448 95.1643 19.272 95.4523 18.92C95.7403 18.568 96.0603 17.928 96.4123 17L96.7483 16.112H97.2043L96.5803 17.864C96.3563 18.488 96.0843 18.984 95.7643 19.352C95.4443 19.704 95.1003 19.952 94.7323 20.096C94.3643 20.256 93.9963 20.336 93.6283 20.336C92.9403 20.336 92.4763 20.176 92.2363 19.856C91.9963 19.536 91.9083 19.12 91.9723 18.608C92.0363 18.096 92.1723 17.552 92.3803 16.976L94.9483 9.704ZM103.582 14.6L104.182 14.624C103.606 14.944 103.07 15.24 102.574 15.512C102.094 15.768 101.702 16.008 101.398 16.232C101.094 16.456 100.942 16.672 100.942 16.88C100.942 17.04 101.054 17.192 101.278 17.336C101.502 17.464 101.87 17.592 102.382 17.72L104.134 18.176C104.646 18.304 105.102 18.456 105.502 18.632C105.918 18.792 106.246 19 106.486 19.256C106.726 19.512 106.846 19.848 106.846 20.264C106.846 20.664 106.71 21.112 106.438 21.608C106.182 22.12 105.774 22.608 105.214 23.072C104.67 23.536 103.958 23.92 103.078 24.224C102.198 24.528 101.134 24.68 99.8864 24.68C99.0544 24.68 98.3584 24.6 97.7984 24.44C97.2224 24.296 96.7984 24.088 96.5264 23.816C96.2384 23.544 96.0944 23.232 96.0944 22.88C96.0944 22.624 96.1664 22.352 96.3104 22.064C96.4544 21.792 96.6704 21.52 96.9584 21.248C97.2304 20.992 97.5824 20.744 98.0144 20.504C98.4304 20.28 98.9264 20.088 99.5024 19.928L99.6704 20.288C99.0784 20.592 98.6704 20.936 98.4464 21.32C98.2224 21.704 98.1104 22.088 98.1104 22.472C98.1104 23.112 98.3344 23.568 98.7824 23.84C99.2304 24.128 99.7824 24.272 100.438 24.272C100.966 24.272 101.51 24.184 102.07 24.008C102.63 23.848 103.15 23.624 103.63 23.336C104.11 23.064 104.494 22.744 104.782 22.376C105.07 22.008 105.214 21.624 105.214 21.224C105.214 20.984 105.134 20.824 104.974 20.744C104.83 20.664 104.582 20.584 104.23 20.504L100.558 19.568C100.174 19.472 99.8624 19.312 99.6224 19.088C99.3824 18.848 99.2624 18.528 99.2624 18.128C99.2624 17.808 99.3744 17.48 99.5984 17.144C99.8224 16.808 100.246 16.44 100.87 16.04C101.494 15.624 102.398 15.144 103.582 14.6ZM104.806 7.76C104.294 7.76 103.862 7.912 103.51 8.216C103.158 8.504 102.862 8.88 102.622 9.344C102.398 9.792 102.222 10.264 102.094 10.76C101.982 11.256 101.902 11.712 101.854 12.128C101.806 12.528 101.782 12.824 101.782 13.016C101.782 13.528 101.894 13.896 102.118 14.12C102.358 14.344 102.67 14.456 103.054 14.456C103.662 14.456 104.15 14.272 104.518 13.904C104.902 13.536 105.198 13.08 105.406 12.536C105.614 11.992 105.75 11.448 105.814 10.904C105.894 10.36 105.934 9.904 105.934 9.536C105.934 8.992 105.862 8.56 105.718 8.24C105.574 7.92 105.27 7.76 104.806 7.76ZM104.902 7.328C105.846 7.328 106.606 7.544 107.182 7.976C107.774 8.392 108.07 9.072 108.07 10.016C108.07 10.784 107.854 11.544 107.422 12.296C106.99 13.048 106.382 13.672 105.598 14.168C104.814 14.648 103.886 14.888 102.814 14.888C101.934 14.888 101.19 14.68 100.582 14.264C99.9904 13.832 99.6944 13.168 99.6944 12.272C99.6944 11.84 99.7824 11.344 99.9584 10.784C100.15 10.208 100.446 9.664 100.846 9.152C101.246 8.624 101.774 8.192 102.43 7.856C103.102 7.504 103.926 7.328 104.902 7.328ZM106.606 8.576L106.174 8.408C106.398 7.864 106.782 7.384 107.326 6.968C107.87 6.552 108.438 6.344 109.03 6.344C109.446 6.344 109.782 6.464 110.038 6.704C110.294 6.928 110.422 7.288 110.422 7.784C110.422 8.232 110.31 8.56 110.086 8.768C109.862 8.976 109.622 9.08 109.366 9.08C109.11 9.08 108.862 9 108.622 8.84C108.398 8.664 108.262 8.392 108.214 8.024C108.166 7.656 108.27 7.184 108.526 6.608L108.838 6.68C108.166 6.936 107.686 7.208 107.398 7.496C107.11 7.768 106.846 8.128 106.606 8.576ZM109.156 19.112C109.156 18.632 109.34 18.208 109.708 17.84C110.076 17.456 110.484 17.264 110.932 17.264C111.3 17.264 111.596 17.384 111.82 17.624C112.044 17.864 112.156 18.16 112.156 18.512C112.156 18.832 112.068 19.136 111.892 19.424C111.732 19.696 111.516 19.912 111.244 20.072C110.972 20.248 110.676 20.336 110.356 20.336C110.004 20.336 109.716 20.224 109.492 20C109.268 19.76 109.156 19.464 109.156 19.112Z" fill="#100C09"/>
</svg>
